<svg xmlns="http://www.w3.org/2000/svg" viewBox="0 0 112.58 135.7"><defs><style>.cls-1{fill:#ffd54f;}.cls-2{fill:#ba0c2f;}</style></defs><g id="Layer_2" data-name="Layer 2"><g id="Layer_1-2" data-name="Layer 1"><path class="cls-1" d="M102.92,78.73,56.28,42.11,10,80C1.43,54.63,1.76,28.2,1.12,1.09H111.38c-.62,26.66-.31,52.65-8.46,77.64M56.27,61.13,16.68,95.83c1.49,2.91,3.12,5.79,4.93,8.67,8.41,13.42,20.89,23.35,34.68,30,13.73-6.64,26.21-16.57,34.62-30q3.14-5,5.63-10.06Z"/><path class="cls-2" d="M23.49,19.79c.05,0-.52.41-.47.39a10.25,10.25,0,0,0-.7,1.13,7.38,7.38,0,0,0-.78,1.6c0,.1-.23,0-.33,0s-.22-.09-.34-.09c-.57,0-.52-.11-1-.06a4.88,4.88,0,0,0-.77.15,1.38,1.38,0,0,1-.39,0c-.11,0-.36,0-.41-.05-.18-.32,0-.66-.21-1s-.5-.32-.66-.46a2.46,2.46,0,0,0-.65-.32c-.21-.07-.34-.18-.56-.24a3.78,3.78,0,0,1-1-.36,5.34,5.34,0,0,1-.88-.83c-.46-.57-.53-1.39-1-2a2.65,2.65,0,0,0-1.79-1.14c-1.62-.28.17-.33-.47-1.51-1.05-1.94-2.5-2.28-4.41-2.53-.43-.06-.54-1.58-1.54-1.15.66-1.5,1.54-.84,2.34-1.65.43-.43,0-.55,0-.54-.21-.37-.67-.09-.94-.3A2,2,0,0,1,6,8c-.14-.33,0-.7-.2-1,0,0-.08-.14-.16-.09A2.21,2.21,0,0,0,6.8,6.24.56.56,0,0,1,7,6.13a2.79,2.79,0,0,1,1.08,0c.51.13.66.39.54.28-.38-.31.59.3.59.67a2.6,2.6,0,0,0,.09.47c.15.38.17.75.37.93s.06.11.13.21.43.14.52.18.13.11.18.14c.22.14.07.22.26.18s.11-.18.09-.31c-.07-.51-.31-1.19.14-1.63.08-.08.09-.17.2-.23a.8.8,0,0,0,.22-.23c.16-.21.14-.42.24-.65,0,.1.28.19.34.24a1.76,1.76,0,0,0,.6.29c.09,0,.17.18.21.2.51.19.75,1.58.74,1.64-1.25,5.6,4,10,10,11.26M8.7,20.48a3.14,3.14,0,0,0-2-.25.57.57,0,0,0-.38.72c.28-.3.7.14.67.26-.26.85-.39,1,.72,1.69-4.14-.22-2.73,3.29-2.26,2.46.2-.35,1.72.21,1.8.63s-.09.57-.8,1.84c-.15.28.6,2,.67,1.59.13-.81,1-.53,1.47-.27C9.62,28.62,9.32,28,10,28c1.11-.13,1.29.07,1.5.74a1.69,1.69,0,0,1-.13.93c1.37.16,2.38-1.69,3.63-1.19,1.81.72,4.64,1.61,5.57.86.29-.23-.44-1.95.22-4-3,1.45-6.28.54-9.06-.78-1.57-.77-1.33-3.08-3.07-4M16.93,12c2.08,3.12,6.83.57,8.44,1.16-2.18-3.83-5.93-.59-8.44-1.16m21,5.55a13.32,13.32,0,0,0-2.7-8.17,7.79,7.79,0,0,1-3.44,7.22c-3.48,2.07-7.82,3.35-9,7.67-.44,1.58-1,5.13-.24,6.69.27-.82.75-1.57,1.69-1.6,3.37-.13,4.35-.8,6.62-2.43.8-.57,2.94,1.78,2.89,1.44s-.15-2.3.28-1.95a5.73,5.73,0,0,0,3.23,1c-2.75-3.11.64-6.64.69-9.91M22,54.33c.42.09.11.45-.06.55a2.77,2.77,0,0,0-.81.86,1.17,1.17,0,0,0-.22.85,4.49,4.49,0,0,0,.21.65c.05.13.18.2.27.31l.2.25c-.09-.33.38-.66.48-.6,2.16,1.25,2.29-1.29,3.58-2.15a1,1,0,0,1,1.47,1.18c1.29-.69,1.67-2.42,2.67-3.51,2.22-2.41,5.33-4,8.28-5.31C37,46.28,35.4,45.33,34.6,44c-.4-.64-.87-1.9,0-1.67,3.63,1,5.66-1.27,6.07-4.13,5.37.7,6.77-4.38,7.49-8.22.35-1.86,1.37-2,.26-5.2-.46-1.33,2.38-1.76,1.9-4A2.1,2.1,0,0,0,49,19.41c.44,1.24-1.63,1.55-1.85,2.05a7.54,7.54,0,0,0-.94,2.25c-1.75-2.42-.33-5.34,1.32-7.61,2.4-3.3,7.37-1.57,9.46.56a4.83,4.83,0,0,0-1.47-3.08c2-.25,4.08.94,6.75-.48,1.54-.82,3.1-1.52,3.82-3.34-3.28.45-7.72-2.08-10.67-2.59-5.51-1-9.21,2.8-11.18,7.28s-.71,7.81,1.43,11.16c.54.84-1.89.29-2.85.78A2.41,2.41,0,0,0,41.67,29c1.17-1.26,4.29-.49,4.57,1.67.38,2.91-2.55,7.15-5.39,5.88-3-1.36-4.76-4.57-5.76-8.17-2.6,2.24-7.4.39-9.63,2.57s3.31,3.48,5.42,4.46a2.21,2.21,0,0,1,1.43,2.14c-3.31-1.94-7.29.26-7.09,3.79.15,2.64,3.38,4.28,6.07,4.51,1.12.09,1.79,1.34.43,2.19-2.39,1.5-5.06,3.16-7.63.46a1.72,1.72,0,0,0-2.28.66,3.12,3.12,0,0,0-.13,1.42c.14-.25.3-.6.52-.57s.56.3.53.49c-.22,1.33-2,.47-2.5,1.5l-.06.07a1.79,1.79,0,0,1-.12.24c-.35.7-.84,1.14,0,1.68,0-.13.43.56.42.68a.68.68,0,0,1,.7-.62l.38,0ZM10.7,41.84c.26,0,.52.38.3.59s-.57.34-.75.68a1.61,1.61,0,0,0,.08,1.23,2.64,2.64,0,0,0,.68.6l.35.28c0-.09-.2-.22,0-.47,0-.06.27-.16.35-.11a1.14,1.14,0,0,0,1.08.17,1.22,1.22,0,0,0,.69-.36c.43-.42.45-.87.8-1.31l.72-.5c.6-.3,3,1.07,1.29,2.76,1.82-1.16,5.09-2.87,7.68-1.86a5.23,5.23,0,0,1,2.7-7.43c-3.28-3.15-6-3-7.29.3-.61,1.62,1.29,3.54-.62,4.35a4.28,4.28,0,0,1-3.18-.2c-2-.7-.77-3.23-2.38-4.52-1.08-.87-3.68-.72-3.67,1.46.11-.11.37-.37.57-.15.42,1.14.42,1.45,1.55,1.72.26.06-.1.61-.29.56a8,8,0,0,1-1.1-.23,1.93,1.93,0,0,0-2.16.39,1.84,1.84,0,0,0-.23.25,1.63,1.63,0,0,0-.22.38,1.92,1.92,0,0,0-.12.92.79.79,0,0,0,0,.34c0,.1,0,.23.11.31s.18.22.29.32A2.3,2.3,0,0,0,9.19,43c-.07,0-.1-.2-.12-.28a.55.55,0,0,1,.09-.43c.13-.22.39-.12.61-.21a1.45,1.45,0,0,1,1-.17M70.94,13c.23.15,0,.57-.28.65s-.76,0-1,.06c-1.23.45-1.24,3.49-1.07,3.14s1.1-.14,1.69,0c1,.19,1.68-1.74,2.3-1.69,1.48.14,2.87,2,3.43,3.19.1.22-.62.23-.67,1,2-.19,3.73,1.12,5.19,2.32a12.46,12.46,0,0,1,2.24-2.81c-3-3-9.09-3.88-8.15-9.27.12-.7-.66-1.3-1-1.64s-1.29-.4-1.84-.53c.58,1.2-.46,1.31-.32,3.21,0,.06-.17,0-.23,0a7.15,7.15,0,0,1-1-.6,1.31,1.31,0,0,0-1-.09,1.46,1.46,0,0,0-.59.25,2.75,2.75,0,0,0-.63.76l-.12.17a.75.75,0,0,0-.2.37c.16,0,.65,0,.73.15s.15.48.31.69.38.27.69.4a2.84,2.84,0,0,0,1.41.25m8-2.1c-.49,0-1.22-.37-1.83-.27a4.32,4.32,0,0,0,6.63,1.08,1.11,1.11,0,0,1,1.07.06c-2.1-2.47-4-1-5.87-.87M87,17.74c-2.15,1.09-7.92,6-5.92,7.83a10,10,0,0,1,4.3,2c.25.24,1.26-2.36,5.54-2.23a7.37,7.37,0,0,1,3.54,1.17c-.68-4.82,2.61-9.51,1-14.23,0-.11-.62-2-.87-1.23-1.28,3.86-4.44,5.12-7.55,6.71M78.5,49.15c.42.66-.14-.38.35.75,2.25-.95,4.59-2,7.09-1-1.1-5.08,2.6-6.31,2.89-7.07.47-1.22-2-3.64-3.88-3-2.38.85-1.39,3.86-1.84,6a2.33,2.33,0,0,1-2.89,1.6c-2-.68-2.76-2.51-3.25-4.57-.33-1.37-3-1.54-3.57-.41-1.64,3.19,1-.37.81,2,0,.41-1.91.1-2.34,1.54-.29,1,.64,1.63,1.8,2,.21.06-.22-.48.07-.61s1.06.37,1,.43c-1.12.69-1.41,2.28.6,3,0,0-.15-.57,0-.69a2.84,2.84,0,0,1,3.21.06M46,81.26c1.61,3.39,4.62,1.23,7.09.85a5.06,5.06,0,0,0-2.14-1.31c-2.46.39-3.07,1.32-5,.46m-1,2a1.08,1.08,0,0,0-.43-.24,2,2,0,0,0-.49-.15l-.4-.1c0,.11.13.4.05.47s-.27.14-.43.38a.86.86,0,0,0-.14.29,6.72,6.72,0,0,0-.17.71,2.33,2.33,0,0,0,.07.53c0,.06.15.33.19.4s.3.32.28.31c.35.35.06.15.49.57.22.21-.1.57-.31.51-1.45-.42-1.66-2.1-3-2.62a2,2,0,0,0-2.49,1.84c.33-.09.66,0,.72.3.36,1.48,2.52.59,2.57,1.63,0,.69-1.62-.11-2.27.32A2.38,2.38,0,0,0,39,91.59c.79-.75,1.77.34,2.53-.2.54-.38.73-.92,1.28-1.16,1.66-.74,2.15.8,1.78,2.34a28.1,28.1,0,0,1,3.49-1c.88-.24.92-2.26,2-3-1.52,0-3.41-.67-3.82-2.15,0-.16.07-.34.08-.52a3.52,3.52,0,0,0-.23-1.64,1.14,1.14,0,0,0-.12-.19l-.17-.26a1.86,1.86,0,0,0-.59-.44c-.1-.06-.21-.08-.28-.17M33.8,93.71c.67,1.29-2.61-.78-3.84,1.14-.39.61-.18,2-.18,2.78.75-.69,1.5.61,2.91-.63.15.14.32.23.11.44a1.65,1.65,0,0,0-.53,1.81,4.16,4.16,0,0,0,1.35,1.17c.12-.85,1.56,0,1.79-1.66.09-.68.29-1.82,1.29-1.41a2,2,0,0,1,.88,2.41c1.44-.47,4-2,5.49-.85,2,1.47,5.37,2.07,7.74,2.81-1.58-1.09-2.08-4-1.81-5.81a18.21,18.21,0,0,1-11.14-1c-1-.44-.82-1.54-1.11-2.44A2.93,2.93,0,0,0,34,90.62c-.62,0-2.12,1.36-1.84,1.42-.1,0-.09.19-.14.28a.55.55,0,0,1,.77.3,1.86,1.86,0,0,0,.36.62c.18.19.55.24.66.47m9,20.45c.73-.89,1.33-.42,1.65-.41.76,0,.71,1.1.63,1.78,3-1.44,5.81-3.49,9.31-2.74-2-2.13-1.32-6.7,1.56-7.26a17.28,17.28,0,0,1-2.05-.43c-2.5-1.59-5.56-3.1-7.24.23-.83,1.65.7,3,1.85,4.35.21.24-.13.39-.4.46-2.73.7-7.77,1.11-8-3,0-.41-1.08-.75-1.76-.74-2,.06-2,2.64-1.76,2.46.45-.34,1.8-.22,1.64.82s-2-.5-2.79.46a3.05,3.05,0,0,0-.16,3c-.09-.33.29-.57.5-.61,2.1-.35,2.21.38,1.59,2.41-.05.15.62,1.44,1.06,1.56a.63.63,0,0,1,0-.39.51.51,0,0,1,.27-.21c.23-.07.46-.06.69-.12a1,1,0,0,0,.3-.17,1.69,1.69,0,0,0,.4-.4c.49-.61.92-1.4,1.74-1.48a1.39,1.39,0,0,1,.95.34m21.71,9.52c1.92-1.9,3.31-4.45,5.36-6.3-2.25-1.33-5-2.71-5.33-5.68,0-.2.32-.43.39-.39,3.13,1.76,7.35,1.9,9.61-1.3,1.82-2.58,2.61-6.77,6.16-7-1.18-2.27.14-4.89,2.09-6.09a4.72,4.72,0,0,0-2.23-.65c-.89.15-1.28,1.37-2.3,1.55,1.61-5.41-1.5-13-7.46-12.85a3.38,3.38,0,0,0-2.94,2.15,3.89,3.89,0,0,0,.31,3.59c2,2.34,3.36,4.89,2.75,8,1.39-1.2,2.68-3,2.63-4.85,0-.47.84-.13,1-.33,1.63-2.39-1-3.87-2.46-5.37-.39-.41.61-1,.74-1,5.12,1.53,5.6,7.84,3.41,11.93-.58-.73-2.75-.49-3.48-.74,2.39,1.21,1.77,1.38,1.67,1.77-.18.72-2.33.41-2.74.94-.72.92-1.26,1.32-1.31,4.37,1-1.07,2.29-2.7,3.7-2,3,1.55-.15,6.76-3,7.62a5.34,5.34,0,0,1-6.18-2.15c-2.17-3.06-.59-6.76-2.14-9.86-1.29.31-1,2-1.66,1.69-2.37-1.1-3.71-3.62-5.43-5.74-.71.25-1,.91-1.71.88-1,0-2.92-.35-3.33.15s-.82,4.89,3.36,6.45c2.84,1.06,5.09,2,6.87,4.22-1.2.1-1.62-.48-2.6-.52a4.21,4.21,0,0,0-2.3.72,3.24,3.24,0,0,0-1.37,2.81c.65,5.2,6.76,5.27,9.58,8.57.48.56-.74,2.82-1.89,3.73-1,.79-3.33-1.18-2.95-2.84.31-1.33-2.9-2.21-4-.7.45,0,.56.24.52.45-.2,1.22,1.32,1.27,1.27,1.89-.07.86-.81-.36-1.4-.47a3.27,3.27,0,0,0-3.34,1.23c-.23.31-.74.81-.51,1.35,1-.49,1.51,1.06,2.43.58.56-.29,1-.78,1.7-.61.27.07.55.44.3.59-1.8,1.16-3.24,2.78-1.94,4.63a1,1,0,0,1,.65-.81c.53-.15,1.23.21,1.74,0,.84-.28.4-1.11.72-1.71.5-.93,2.21-2.49,3.16-1.36.17.2,0,1-.48,1,.53,0,1,.51,1.45.41a1.61,1.61,0,0,0,.38-.08.89.89,0,0,0,.29-.15,1.28,1.28,0,0,0,.49-.77c.39,0,.88.07,1.13-.26a6,6,0,0,1,.83-.84M55.78,86c-3.28.91-5.16,3.87-6.15,6.8A4.21,4.21,0,0,0,49.41,94c0,.29,1.89-2,3.22-1.32a3.82,3.82,0,0,1-.67,2c1.7-.26,4-.52,5.11-1.74.18-.2.07,1.18.34,1.83a9.13,9.13,0,0,0,3.75,3.93c.39.24.34-.77,1.15-1.41.65-.51,1.83.6,2.39.85s-.55-1.53-.66-2.08c-1-4.89,1-8.91,1-13.59a3.46,3.46,0,0,0-1.35-2.85c-.82,3.72-4.54,5.46-7.89,6.4M32.31,6.55c-1.41,0-2.67-1.17-4.05-.66a48.27,48.27,0,0,1-4.82,1.77,1.78,1.78,0,0,0-1.41,2C23.64,9,25.77,8.15,26.8,10c.62,1.09.39,2.07-.08,3.4-.38,1.08-2.27,1.39-3.7,1.2a1,1,0,0,1,.3,1.14c3.21-.81,7.9.4,10.06-3.24.73-1.24-.27-2.45.07-3.7.16-.61,1-1,1.33-1.66s-.45-1.21-.41-1.71a2.89,2.89,0,0,1-2.06,1.17M29.94,8.36c-1.08.5-3.52.83-3.1-.2.62-1.52,2.08-1.69,3.3,0,0,0-.06.13-.2.19m61.28,5.22c1.36-.65,1.44-2.45,2-3.74C93.54,9,94.55,9,94.91,8c.11-.28.11-1.68-.1-1.59-.87.37-2.19,1-3.12.7-3.08-.85-3.86-2.43-6.81-.25-.88.65-2.57,0-3.66,1.36a2.62,2.62,0,0,0-.14,1.18c1.54.08,3.77-1.66,4.7.12a2.34,2.34,0,0,1,.34.92l0,.19a4.68,4.68,0,0,1,0,1.24,2.37,2.37,0,0,1-.65,1.38c-.11.14-.28.2-.4.32l-.18.15a2.34,2.34,0,0,1-.55.27,1.32,1.32,0,0,1-.44.13l-.28,0s-.53,0-.55,0c-.37,0-.42-.16-.67.06a1,1,0,0,0-.25.67,2.27,2.27,0,0,1,.69.12,5.87,5.87,0,0,0,1,.26,6.6,6.6,0,0,0,1.33.07c.25,0,1,0,1.3,0a3.45,3.45,0,0,0,.64-.05,3.89,3.89,0,0,0,.79-.12,5,5,0,0,0,.79-.34c.33-.2.62-.43.93-.66.52-.36,1.29-.34,1.75-.74M89.3,7.71c-1.15.62-4.1,1.53-3.66.23.6-1.77,2.33-.9,3.66-.23-.11.11.13-.07,0,0M60,76.51c-2.06-.48-3.69-1-5.18,0,.06,0-1.13,1.25-1.07,1.26-2.28-.14-3.73,1.41-3.38,2.34.84-.37,1.65-1.11,2.56-.63s1.17,2.55.84,3.42a2.52,2.52,0,0,1-2.13,1.47c-.49,0-.23.7-.26,1.08,3-.25,6.36-1.94,9-3.35,1.33-.71,1.3-2.08,1.78-3.46.31-.9,2-1.14,1.57-3-.89,1.18-2.37,1.14-3.74.82m-4,2.38a1,1,0,0,1-.46-.27.89.89,0,0,1-.14-.72.84.84,0,0,1,.32-.45c.14-.13.37-.13.53-.2s.15-.14.27-.19a.37.37,0,0,1,.25,0c.33.07.57.29.9.33a11.43,11.43,0,0,1,1.29.18,0,0,0,0,1,0,0,1.47,1.47,0,0,1-.34.32c-.56.32-2.12,1.18-2.65,1m44-15.3c0-.45,1.08-1.79,1.11-2.77.11-3.34,2.11-4.91,2.17-8.48,0-.93-3.84-1.8-4-3.81-.08-1-.41-2.43.59-2.41a4.9,4.9,0,0,0,3.44-1c4-3.55.62-8.4.14-12.68-.11-.94,1.63-3,1.58-3.63-.28-3.63-1-6.94.34-10.51-1,.9-1.32,2.4-2.17,3.17-.42.38-.62-.46-.59-.6A31.78,31.78,0,0,1,105.73,12c1.72-3.54.86-6.4-2.32-7.46-2.92-1-5.73,1.74-6,4.53-.29,2.56.51,5.62,1.11,7.72.18.61.07,1.31.2,1.84a25.53,25.53,0,0,0,.54-6.56,1.63,1.63,0,0,1,1-1.44c1.89-.55,2.87.82,2.74,1.88a76.47,76.47,0,0,1-1.89,9.24c-.91,3.8.45,7.57.85,11.26-1.46-.85-3-.9-3.61,1.37-.3,1.21.79,2.48,1.12,3.54,0-1.45,1.4-3.43,2.74-2.55,1.63,1.09,1.69,6.3,1.33,7-.79,1.51-2.1,2.59-3.91,2.06-1-.3-.6-1.81-1.22-2.45a18.09,18.09,0,0,1-5-12c0-.68.31-2.46.21-2.5-4.24-1.75-6.21,0-8,2.5-.31-.76-1.93-1.82-2.06-1.58-.8,1.5-.58,4.21.64,5.27,3.27,2.83,6.52,4.73,8.36,8.79-2,.26-3.88.82-4.64,2.88s-.52,5.13,1.75,6c1.84.71,5-.09,5.71,0,2,.26,4.16,2,3.85,3.8,0,.09-.84,4.43-2.72,3.35-1-.58-.44-3-2-3.33-2.08-.5-2.6,2.41-2.34,2.16.66-.63,1.13.41,2.42,1.12-4.36-1-3,3-2.85,2.61.22-.62,1,0,2.58-.08.06,0-.34.33-.36.36a6.73,6.73,0,0,0-.54,1,1.23,1.23,0,0,0,0,.63,1.45,1.45,0,0,0,.21.59.27.27,0,0,0,.11.1s.08.11.09.11-.09-.31.17-.33a1.46,1.46,0,0,1,.29,0c.12,0,.27.12.39.15a2,2,0,0,0,.35.07,1.17,1.17,0,0,0,.67,0,2.09,2.09,0,0,0,.64-.27c-.28.19.31-.28.28-.23.27-.58.44-.41.5-.52.46-.89.87-1,1.89-.84.1,0,.29.22.35.31s.28.67.25.46c.1.43.35.69.39,1.08m-31-39.4c.22.19-.31.39-.45.23-1.91-2.25-5.13-1.94-4.87,1.67,1.22-.62,1.39,1.06,2.17.6s1.25-.87,1.93-.55c.41.19.29,1,0,1.08-3.51,1.25-.68,3.55-1.25,4,.49-.42,1.94-.41,3.33-2.49.29-.43,2-.47,2.6-.28,1,.29-.07,1.75.36,1.68,1-.18,3.21,1,4.14,1.9,2.08,2,3.68,1.7,6.08,3-1.65-1.5-1.66-4.14-1.14-6.22a24.9,24.9,0,0,1-6.31-1.12c-4-1-3.75-5.09-4.47-6.76l-.24-.27c-.19-.69-1-1-1.74-1.09l-.21,0a3.31,3.31,0,0,0-.55,0,.3.3,0,0,1,.1.48s0,.07-.06.05-.06.07-.08.12-.1.08-.13.14,0,.06,0,.07a1.62,1.62,0,0,0-.48,1.77.92.92,0,0,0,.17.36l.17.19c.18.17.27.57.53.74Z"/><path d="M110.24,8.9c-.47,23.21-.92,45.52-7.49,67.06L56.4,37.74,9.86,76.07C3.26,54.49,2.8,32.13,2.34,8.87Q2.28,5.56,2.2,2.23H110.38c0,2.23-.09,4.45-.14,6.67m-20.16,95C82.47,116,70.81,126.15,56.32,133.24c-14.5-7.07-26.19-17.22-33.81-29.36-1.28-2-2.46-4.08-3.58-6.13L56.4,66.9,93.7,97.66c-1.13,2.08-2.33,4.15-3.62,6.22m-78-21.12L56.4,46.3l44.1,36.36q-1.66,4.5-3.74,9L56.41,58.34,15.87,91.72q-2.08-4.45-3.75-9M0,0,0,1.14Q.12,5,.19,8.92C.87,42.64,1.51,74.5,20.71,105.1c7.92,12.62,20.08,23.13,35.16,30.38l.45.22.45-.22c15.06-7.27,27.2-17.78,35.1-30.38C111.06,74.51,111.71,42.67,112.38,9c.05-2.59.11-5.2.17-7.81l0-1.14Z"/></g></g></svg>