<svg xmlns="http://www.w3.org/2000/svg" viewBox="0 0 82.1 52.96"><defs><style>.cls-1{fill:#3a3a3a;}.cls-2{fill:#ce4949;}</style></defs><g id="Layer_2" data-name="Layer 2"><g id="beak"><g id="bottom"><path id="bottom-2" data-name="bottom" class="cls-1" d="M.22,26.6c-.94,4.33.37,11.75,20,12.11,30.65.56,21.7,11.52,37.65,13.81C72.73,54.58,36.6,50,82.09,26.13"/><g id="inner_mouth" data-name="inner mouth"><path class="cls-2" d="M82.09,26.13c.2.11-26.38-21.54-26.38-21.54s-6-5.65-9.25-4.41c-.61.23-2.57,12.11-2.71,12.75C41.25,24.35.46,24.86.24,26.6-.55,32.79,43.55,41.89,82.09,26.13Z"/></g><g id="divider"><path d="M.24,26.62c-.71,6.19,43.35,15.25,81.85-.49a4.81,4.81,0,0,1-.85,0C42.27,35.39,15.5,32.26.24,26.62Z"/></g></g></g></g></svg>